<mxfile host="app.diagrams.net" agent="Mozilla/5.0 (Macintosh; Intel Mac OS X 10.15; rv:134.0) Gecko/20100101 Firefox/134.0" version="26.0.11">
  <diagram name="Page-1" id="FAxAlmYBwclTKpmv_WpR">
    <mxGraphModel dx="820" dy="529" grid="1" gridSize="10" guides="1" tooltips="1" connect="1" arrows="1" fold="1" page="1" pageScale="1" pageWidth="850" pageHeight="1100" background="#A9C4EB" math="0" shadow="0">
      <root>
        <mxCell id="0" />
        <mxCell id="1" parent="0" />
        <mxCell id="jUbMMd5hetG9T2fQ9o-v-3" style="edgeStyle=orthogonalEdgeStyle;rounded=0;orthogonalLoop=1;jettySize=auto;html=1;exitX=1;exitY=0.5;exitDx=0;exitDy=0;entryX=0;entryY=0.5;entryDx=0;entryDy=0;" edge="1" parent="1" source="jUbMMd5hetG9T2fQ9o-v-1" target="jUbMMd5hetG9T2fQ9o-v-2">
          <mxGeometry relative="1" as="geometry" />
        </mxCell>
        <mxCell id="jUbMMd5hetG9T2fQ9o-v-31" style="edgeStyle=orthogonalEdgeStyle;rounded=0;orthogonalLoop=1;jettySize=auto;html=1;entryX=0;entryY=0.5;entryDx=0;entryDy=0;" edge="1" parent="1" source="jUbMMd5hetG9T2fQ9o-v-1" target="jUbMMd5hetG9T2fQ9o-v-23">
          <mxGeometry relative="1" as="geometry">
            <Array as="points">
              <mxPoint x="110" y="460" />
            </Array>
          </mxGeometry>
        </mxCell>
        <mxCell id="jUbMMd5hetG9T2fQ9o-v-1" value="User" style="whiteSpace=wrap;html=1;" vertex="1" parent="1">
          <mxGeometry x="70" y="230" width="120" height="60" as="geometry" />
        </mxCell>
        <mxCell id="jUbMMd5hetG9T2fQ9o-v-6" style="edgeStyle=orthogonalEdgeStyle;rounded=0;orthogonalLoop=1;jettySize=auto;html=1;entryX=0;entryY=0.5;entryDx=0;entryDy=0;exitX=1;exitY=0;exitDx=0;exitDy=0;" edge="1" parent="1" source="jUbMMd5hetG9T2fQ9o-v-2" target="jUbMMd5hetG9T2fQ9o-v-5">
          <mxGeometry relative="1" as="geometry">
            <Array as="points">
              <mxPoint x="298" y="170" />
            </Array>
          </mxGeometry>
        </mxCell>
        <mxCell id="jUbMMd5hetG9T2fQ9o-v-8" style="edgeStyle=orthogonalEdgeStyle;rounded=0;orthogonalLoop=1;jettySize=auto;html=1;exitX=0.364;exitY=-0.023;exitDx=0;exitDy=0;entryX=0.5;entryY=0;entryDx=0;entryDy=0;exitPerimeter=0;" edge="1" parent="1" source="jUbMMd5hetG9T2fQ9o-v-2" target="jUbMMd5hetG9T2fQ9o-v-1">
          <mxGeometry relative="1" as="geometry">
            <Array as="points">
              <mxPoint x="259" y="210" />
              <mxPoint x="130" y="210" />
            </Array>
          </mxGeometry>
        </mxCell>
        <mxCell id="jUbMMd5hetG9T2fQ9o-v-9" style="edgeStyle=orthogonalEdgeStyle;rounded=0;orthogonalLoop=1;jettySize=auto;html=1;exitX=1;exitY=1;exitDx=0;exitDy=0;entryX=0;entryY=0;entryDx=0;entryDy=0;" edge="1" parent="1" source="jUbMMd5hetG9T2fQ9o-v-2" target="jUbMMd5hetG9T2fQ9o-v-4">
          <mxGeometry relative="1" as="geometry" />
        </mxCell>
        <mxCell id="jUbMMd5hetG9T2fQ9o-v-19" style="edgeStyle=orthogonalEdgeStyle;rounded=0;orthogonalLoop=1;jettySize=auto;html=1;entryX=0.5;entryY=1;entryDx=0;entryDy=0;" edge="1" parent="1" source="jUbMMd5hetG9T2fQ9o-v-2" target="jUbMMd5hetG9T2fQ9o-v-18">
          <mxGeometry relative="1" as="geometry" />
        </mxCell>
        <mxCell id="jUbMMd5hetG9T2fQ9o-v-2" value="&lt;div&gt;Retrieve&lt;/div&gt;&lt;div&gt;Data&lt;br&gt;&lt;/div&gt;" style="ellipse;whiteSpace=wrap;html=1;" vertex="1" parent="1">
          <mxGeometry x="230" y="220" width="80" height="80" as="geometry" />
        </mxCell>
        <mxCell id="jUbMMd5hetG9T2fQ9o-v-13" style="edgeStyle=orthogonalEdgeStyle;rounded=0;orthogonalLoop=1;jettySize=auto;html=1;exitX=1;exitY=0.5;exitDx=0;exitDy=0;entryX=0;entryY=0.5;entryDx=0;entryDy=0;" edge="1" parent="1" source="jUbMMd5hetG9T2fQ9o-v-4" target="jUbMMd5hetG9T2fQ9o-v-12">
          <mxGeometry relative="1" as="geometry" />
        </mxCell>
        <mxCell id="jUbMMd5hetG9T2fQ9o-v-14" style="edgeStyle=orthogonalEdgeStyle;rounded=0;orthogonalLoop=1;jettySize=auto;html=1;exitX=1;exitY=0;exitDx=0;exitDy=0;entryX=0;entryY=0.5;entryDx=0;entryDy=0;" edge="1" parent="1" source="jUbMMd5hetG9T2fQ9o-v-4" target="jUbMMd5hetG9T2fQ9o-v-11">
          <mxGeometry relative="1" as="geometry">
            <Array as="points">
              <mxPoint x="388" y="310" />
            </Array>
          </mxGeometry>
        </mxCell>
        <mxCell id="jUbMMd5hetG9T2fQ9o-v-4" value="&lt;div&gt;Filter&lt;/div&gt;&lt;div&gt;Site&lt;br&gt;&lt;/div&gt;" style="ellipse;whiteSpace=wrap;html=1;" vertex="1" parent="1">
          <mxGeometry x="320" y="320" width="80" height="80" as="geometry" />
        </mxCell>
        <mxCell id="jUbMMd5hetG9T2fQ9o-v-10" style="edgeStyle=orthogonalEdgeStyle;rounded=0;orthogonalLoop=1;jettySize=auto;html=1;entryX=0.5;entryY=0;entryDx=0;entryDy=0;" edge="1" parent="1" source="jUbMMd5hetG9T2fQ9o-v-5" target="jUbMMd5hetG9T2fQ9o-v-4">
          <mxGeometry relative="1" as="geometry">
            <Array as="points">
              <mxPoint x="400" y="240" />
              <mxPoint x="360" y="240" />
            </Array>
          </mxGeometry>
        </mxCell>
        <mxCell id="jUbMMd5hetG9T2fQ9o-v-5" value="Website" style="whiteSpace=wrap;html=1;" vertex="1" parent="1">
          <mxGeometry x="340" y="140" width="120" height="60" as="geometry" />
        </mxCell>
        <mxCell id="jUbMMd5hetG9T2fQ9o-v-7" value="" style="endArrow=none;dashed=1;html=1;rounded=0;strokeColor=#FF0000;" edge="1" parent="1">
          <mxGeometry width="50" height="50" relative="1" as="geometry">
            <mxPoint x="210" y="300" as="sourcePoint" />
            <mxPoint x="210" y="200" as="targetPoint" />
          </mxGeometry>
        </mxCell>
        <mxCell id="jUbMMd5hetG9T2fQ9o-v-22" style="edgeStyle=orthogonalEdgeStyle;rounded=0;orthogonalLoop=1;jettySize=auto;html=1;exitX=0.5;exitY=0;exitDx=0;exitDy=0;entryX=0;entryY=0.5;entryDx=0;entryDy=0;" edge="1" parent="1" source="jUbMMd5hetG9T2fQ9o-v-11" target="jUbMMd5hetG9T2fQ9o-v-15">
          <mxGeometry relative="1" as="geometry" />
        </mxCell>
        <mxCell id="jUbMMd5hetG9T2fQ9o-v-11" value="Text Storage" style="shape=partialRectangle;whiteSpace=wrap;html=1;left=0;right=0;" vertex="1" parent="1">
          <mxGeometry x="450" y="290" width="100" height="40" as="geometry" />
        </mxCell>
        <mxCell id="jUbMMd5hetG9T2fQ9o-v-21" style="edgeStyle=orthogonalEdgeStyle;rounded=0;orthogonalLoop=1;jettySize=auto;html=1;exitX=1;exitY=0.5;exitDx=0;exitDy=0;" edge="1" parent="1" source="jUbMMd5hetG9T2fQ9o-v-12" target="jUbMMd5hetG9T2fQ9o-v-15">
          <mxGeometry relative="1" as="geometry" />
        </mxCell>
        <mxCell id="jUbMMd5hetG9T2fQ9o-v-12" value="Term Instances" style="shape=partialRectangle;whiteSpace=wrap;html=1;left=0;right=0;" vertex="1" parent="1">
          <mxGeometry x="450" y="350" width="100" height="40" as="geometry" />
        </mxCell>
        <mxCell id="jUbMMd5hetG9T2fQ9o-v-17" style="edgeStyle=orthogonalEdgeStyle;rounded=0;orthogonalLoop=1;jettySize=auto;html=1;exitX=1;exitY=0.5;exitDx=0;exitDy=0;entryX=0;entryY=0.5;entryDx=0;entryDy=0;" edge="1" parent="1" source="jUbMMd5hetG9T2fQ9o-v-15" target="jUbMMd5hetG9T2fQ9o-v-16">
          <mxGeometry relative="1" as="geometry" />
        </mxCell>
        <mxCell id="jUbMMd5hetG9T2fQ9o-v-15" value="Logging" style="ellipse;whiteSpace=wrap;html=1;" vertex="1" parent="1">
          <mxGeometry x="560" y="200" width="80" height="80" as="geometry" />
        </mxCell>
        <mxCell id="jUbMMd5hetG9T2fQ9o-v-16" value="Log Data" style="shape=partialRectangle;whiteSpace=wrap;html=1;left=0;right=0;" vertex="1" parent="1">
          <mxGeometry x="680" y="220" width="100" height="40" as="geometry" />
        </mxCell>
        <mxCell id="jUbMMd5hetG9T2fQ9o-v-20" style="edgeStyle=orthogonalEdgeStyle;rounded=0;orthogonalLoop=1;jettySize=auto;html=1;" edge="1" parent="1" target="jUbMMd5hetG9T2fQ9o-v-15">
          <mxGeometry relative="1" as="geometry">
            <mxPoint x="290" y="110" as="sourcePoint" />
            <Array as="points">
              <mxPoint x="290" y="110" />
              <mxPoint x="600" y="110" />
            </Array>
          </mxGeometry>
        </mxCell>
        <mxCell id="jUbMMd5hetG9T2fQ9o-v-18" value="Input Storage" style="shape=partialRectangle;whiteSpace=wrap;html=1;left=0;right=0;" vertex="1" parent="1">
          <mxGeometry x="190" y="100" width="100" height="40" as="geometry" />
        </mxCell>
        <mxCell id="jUbMMd5hetG9T2fQ9o-v-30" style="edgeStyle=orthogonalEdgeStyle;rounded=0;orthogonalLoop=1;jettySize=auto;html=1;entryX=0.5;entryY=1;entryDx=0;entryDy=0;exitX=-0.007;exitY=0.34;exitDx=0;exitDy=0;exitPerimeter=0;" edge="1" parent="1" source="jUbMMd5hetG9T2fQ9o-v-23" target="jUbMMd5hetG9T2fQ9o-v-1">
          <mxGeometry relative="1" as="geometry" />
        </mxCell>
        <mxCell id="jUbMMd5hetG9T2fQ9o-v-23" value="Dashboard" style="ellipse;whiteSpace=wrap;html=1;" vertex="1" parent="1">
          <mxGeometry x="400" y="420" width="80" height="80" as="geometry" />
        </mxCell>
        <mxCell id="jUbMMd5hetG9T2fQ9o-v-25" style="edgeStyle=orthogonalEdgeStyle;rounded=0;orthogonalLoop=1;jettySize=auto;html=1;exitX=0.723;exitY=0.97;exitDx=0;exitDy=0;entryX=1.003;entryY=0.35;entryDx=0;entryDy=0;entryPerimeter=0;exitPerimeter=0;" edge="1" parent="1" source="jUbMMd5hetG9T2fQ9o-v-15" target="jUbMMd5hetG9T2fQ9o-v-23">
          <mxGeometry relative="1" as="geometry">
            <Array as="points">
              <mxPoint x="618" y="448" />
            </Array>
          </mxGeometry>
        </mxCell>
        <mxCell id="jUbMMd5hetG9T2fQ9o-v-27" style="edgeStyle=orthogonalEdgeStyle;rounded=0;orthogonalLoop=1;jettySize=auto;html=1;entryX=1;entryY=1;entryDx=0;entryDy=0;" edge="1" parent="1" source="jUbMMd5hetG9T2fQ9o-v-23" target="jUbMMd5hetG9T2fQ9o-v-15">
          <mxGeometry relative="1" as="geometry" />
        </mxCell>
        <mxCell id="jUbMMd5hetG9T2fQ9o-v-32" style="edgeStyle=orthogonalEdgeStyle;rounded=0;orthogonalLoop=1;jettySize=auto;html=1;entryX=0.113;entryY=0.22;entryDx=0;entryDy=0;entryPerimeter=0;" edge="1" parent="1" source="jUbMMd5hetG9T2fQ9o-v-2" target="jUbMMd5hetG9T2fQ9o-v-15">
          <mxGeometry relative="1" as="geometry">
            <Array as="points">
              <mxPoint x="480" y="270" />
              <mxPoint x="480" y="218" />
            </Array>
          </mxGeometry>
        </mxCell>
        <mxCell id="jUbMMd5hetG9T2fQ9o-v-33" value="" style="endArrow=none;dashed=1;html=1;rounded=0;strokeColor=#FF0000;" edge="1" parent="1">
          <mxGeometry width="50" height="50" relative="1" as="geometry">
            <mxPoint x="170" y="319.2" as="sourcePoint" />
            <mxPoint x="50" y="319.2" as="targetPoint" />
          </mxGeometry>
        </mxCell>
        <mxCell id="jUbMMd5hetG9T2fQ9o-v-34" value="" style="endArrow=none;dashed=1;html=1;rounded=0;strokeColor=#FF0000;" edge="1" parent="1">
          <mxGeometry width="50" height="50" relative="1" as="geometry">
            <mxPoint x="460" y="210" as="sourcePoint" />
            <mxPoint x="340" y="210" as="targetPoint" />
          </mxGeometry>
        </mxCell>
      </root>
    </mxGraphModel>
  </diagram>
</mxfile>
